<?xml version="1.0" encoding="UTF-8"?>
<svg width="320px" height="354px" viewBox="0 0 320 354" version="1.1" xmlns="http://www.w3.org/2000/svg" xmlns:xlink="http://www.w3.org/1999/xlink">
    <!-- Generator: Sketch 53 (72520) - https://sketchapp.com -->
    <title>Artboard</title>
    <desc>Created with Sketch.</desc>
    <g id="Artboard" stroke="none" stroke-width="1" fill="none" fill-rule="evenodd" stroke-linecap="round">
        <path d="M82.4921306,350.000133 C87.9701306,334.863133 110.660131,322.014133 126.194131,314.753133 C134.837131,310.713133 141.272131,308.397133 141.272131,308.397133 C260.627131,267.296133 300.393131,174.257133 300.393131,174.257133 L300.390131,174.258133 C306.487131,162.619133 311.043131,149.718133 313.632131,135.903133 C325.503131,72.5701325 291.575131,14.0481325 237.853131,5.19213253 C205.674131,-0.112867474 174.683131,12.5461325 151.657131,38.0111325 L150.676131,36.2871325 C140.034131,17.0951325 125.827131,11.5401325 105.578131,8.20213253 C62.7471306,1.14113253 17.0791306,33.8051325 6.39513058,90.8081325 C2.90813058,109.413133 3.33513058,127.479133 6.98313058,143.620133 C13.4841306,197.658133 97.8651306,254.137133 97.8651306,254.137133 C97.8651306,254.137133 120.700131,271.581133 119.960131,284.473133" id="Stroke-1" stroke="#E16168" stroke-width="8"></path>
    </g>
</svg>